<?xml version="1.0" encoding="utf-8"?>
<!-- Generator: Adobe Illustrator 16.0.0, SVG Export Plug-In . SVG Version: 6.00 Build 0)  -->
<!DOCTYPE svg PUBLIC "-//W3C//DTD SVG 1.1//EN" "http://www.w3.org/Graphics/SVG/1.1/DTD/svg11.dtd">
<svg version="1.1" id="Layer_1" xmlns="http://www.w3.org/2000/svg" xmlns:xlink="http://www.w3.org/1999/xlink" x="0px" y="0px"
	 width="50px" height="50px" viewBox="0 0 50 50" enable-background="new 0 0 50 50" xml:space="preserve">
<g>
	<g>
		<path fill="#5E6570" d="M44.93,11.646l-0.715,0.228l-3.826,0.34l-1.08,1.725l-0.784-0.249l-3.044-2.744L35.041,9.52l-0.593-1.522
			l-1.913-1.715L30.279,5.84l-0.051,1.033l2.211,2.158l1.079,1.274l-1.214,0.635l-0.989-0.292l-1.484-0.618l0.049-1.197l-1.946-0.8
			l-0.645,2.812l-1.962,0.445l0.194,1.57l2.555,0.491l0.441-2.507l2.11,0.312l0.982,0.575h1.572l1.077,2.157l2.856,2.897
			l-0.209,1.125l-2.304-0.293l-3.979,2.009l-2.866,3.436l-0.371,1.521h-1.028l-1.916-0.883l-1.861,0.883l0.463,1.965l0.81-0.935
			l1.424-0.044l-0.098,1.764l1.178,0.345l1.179,1.322l1.924-0.54l2.196,0.347l2.55,0.686l1.275,0.149l2.16,2.454l4.169,2.451
			L39.118,39.7l-2.848,1.321l-1.08,2.946l-4.12,2.749l-0.438,1.586c10.53-2.535,18.364-11.996,18.364-23.304
			C48.992,20.06,47.495,15.461,44.93,11.646z"/>
		<path fill="#5E6570" d="M27.757,37.543l-1.745-3.242l1.603-3.341l-1.603-0.48l-1.803-1.81l-3.989-0.895l-1.326-2.772v1.646h-0.583
			l-3.439-4.664v-3.831l-2.521-4.099L8.347,14.77H5.651l-1.356-0.89l1.731-1.371l-1.726,0.398
			c-2.081,3.554-3.295,7.677-3.295,12.094C1.004,38.253,11.747,49,25,49c1.021,0,2.021-0.09,3.011-0.21l-0.252-2.907
			c0,0,1.103-4.318,1.103-4.464C28.858,41.271,27.757,37.543,27.757,37.543z"/>
		<path fill="#5E6570" d="M9.921,8.738l4.262-0.594l1.965-1.076l2.209,0.637l3.534-0.196l1.21-1.902l1.765,0.291l4.284-0.402
			l1.181-1.302l1.666-1.112l2.357,0.355l0.855-0.13C32.108,1.845,28.655,1,24.999,1C17.55,1,10.889,4.395,6.493,9.726h0.012
			L9.921,8.738z M26.014,3.386l2.447-1.349l1.576,0.908l-2.28,1.735l-2.174,0.218l-0.978-0.636L26.014,3.386z M18.754,3.583
			l1.082,0.451l1.416-0.451l0.772,1.337l-3.27,0.858L17.182,4.86C17.18,4.86,18.718,3.869,18.754,3.583z"/>
	</g>
</g>
</svg>
