<?xml version="1.0" encoding="utf-8"?>
<!-- Generator: Adobe Illustrator 16.0.0, SVG Export Plug-In . SVG Version: 6.00 Build 0)  -->
<!DOCTYPE svg PUBLIC "-//W3C//DTD SVG 1.1//EN" "http://www.w3.org/Graphics/SVG/1.1/DTD/svg11.dtd">
<svg version="1.1" id="Layer_1" xmlns="http://www.w3.org/2000/svg" xmlns:xlink="http://www.w3.org/1999/xlink" x="0px" y="0px"
	 width="150px" height="150px" viewBox="0 0 150 150" enable-background="new 0 0 150 150" xml:space="preserve">
<rect opacity="0" fill="#C6A642" width="150" height="150"/>
<g>
	<path fill="#C6A642" d="M105.259,117.214c-1.125-0.346-2.484-0.519-4.078-0.519h-3.445v17.49h3.955c0.867,0,1.547-0.023,2.039-0.07
		s1.002-0.164,1.529-0.352s0.984-0.451,1.371-0.791c1.746-1.477,2.619-4.02,2.619-7.629c0-2.543-0.384-4.447-1.151-5.713
		S106.384,117.56,105.259,117.214z"/>
	<path fill="#C6A642" d="M129.491,5h-13.334v43.505c0,1.057-0.628,2.013-1.6,2.433c-0.338,0.146-0.696,0.218-1.051,0.218
		c-0.662,0-1.314-0.249-1.816-0.721l-8.255-7.767l-8.256,7.767c-0.771,0.724-1.897,0.922-2.867,0.503
		c-0.971-0.419-1.6-1.376-1.6-2.433V5h-58.33c-3.886,0-7.037,3.151-7.037,7.037v17.225h-5.189c-3.686,0-6.685,2.998-6.685,6.684
		c0,3.544,2.775,6.444,6.265,6.663h17.242c1.843,0,3.343,1.5,3.343,3.343c0,1.842-1.5,3.342-3.343,3.342H25.346v15.151h-5.189
		c-3.686,0-6.685,2.998-6.685,6.684c0,3.641,2.926,6.604,6.549,6.677h16.885c1.843,0,3.342,1.5,3.342,3.342
		c0,1.844-1.5,3.343-3.342,3.343h-11.56v15.137h-5.189c-3.686,0-6.685,2.999-6.685,6.686c0,3.686,2.999,6.685,6.685,6.685h5.189
		v0.004h11.56c1.843,0,3.342,1.499,3.342,3.343c0,1.843-1.5,3.343-3.342,3.343h-11.56v18.275c0,3.887,3.151,7.037,7.037,7.037
		h97.108c3.887,0,7.036-3.15,7.036-7.037V12.037C136.527,8.15,133.378,5,129.491,5z M114.136,129.615
		c-0.27,1.277-0.686,2.429-1.248,3.454s-1.283,1.942-2.162,2.751c-0.691,0.621-1.447,1.119-2.268,1.494s-1.702,0.639-2.646,0.791
		s-2.007,0.229-3.19,0.229h-6.803c-0.949,0-1.664-0.144-2.145-0.431s-0.794-0.691-0.94-1.213s-0.22-1.198-0.22-2.03v-18.896
		c0-1.125,0.252-1.939,0.756-2.443s1.318-0.756,2.443-0.756h6.803c1.77,0,3.287,0.164,4.553,0.492s2.414,0.943,3.445,1.846
		c2.684,2.297,4.025,5.789,4.025,10.477C114.54,126.926,114.405,128.338,114.136,129.615z"/>
</g>
</svg>
